<svg width="300" height="44" viewBox="0 0 300 44" fill="none" xmlns="http://www.w3.org/2000/svg">
<rect width="300" height="44" rx="22" fill="#FF5B24"/>
<path d="M71.5462 16.364H75.8937C78.4467 16.364 79.8712 17.6405 79.8712 19.62C79.8712 20.5265 79.3162 21.6365 78.1692 22.2655C79.7602 22.7835 80.3892 23.875 80.3892 24.9295C80.3892 26.9275 78.7427 28.5 76.1157 28.5H71.5462V16.364ZM74.0252 23.394V26.354H75.8937C77.0222 26.354 77.7992 25.91 77.7992 24.874C77.7992 24.023 77.0407 23.394 75.8937 23.394H74.0252ZM74.0252 18.51V21.3405H75.6902C76.6707 21.3405 77.3367 20.804 77.3367 19.9345C77.3367 19.028 76.7632 18.51 75.6902 18.51H74.0252ZM82.2923 19.176H84.6788V28.5H82.2923V19.176ZM83.4948 15.0505C84.2903 15.0505 84.8823 15.6425 84.8823 16.401C84.8823 17.178 84.2903 17.7515 83.4948 17.7515C82.6993 17.7515 82.1073 17.178 82.1073 16.401C82.1073 15.6425 82.6993 15.0505 83.4948 15.0505ZM96.07 15.957V28.5H93.702V26.7795C93.221 27.871 92.185 28.7405 90.5385 28.7405C88.67 28.7405 86.524 27.1495 86.524 23.7455C86.524 20.4895 88.6515 18.917 90.7975 18.917C92.0185 18.917 93.036 19.5275 93.702 20.952V15.957H96.07ZM91.334 20.9335C90.1685 20.9335 88.9475 21.877 88.9475 23.8565C88.9475 25.7805 90.15 26.7055 91.3155 26.7055C92.5735 26.7055 93.702 25.836 93.702 23.8565C93.702 21.9325 92.5735 20.9335 91.334 20.9335ZM103.326 21.4145C102.068 21.4145 100.884 22.099 100.884 24.4855V28.5H98.5159V19.176H100.884V21.4145C101.642 19.398 103.122 18.917 104.01 18.917C104.251 18.917 104.528 18.954 104.732 19.0465L104.547 21.618C104.195 21.4885 103.825 21.4145 103.326 21.4145ZM109.328 28.7405C107.441 28.7405 105.295 27.1495 105.295 23.7455C105.295 20.4895 107.404 18.917 109.402 18.917C110.771 18.917 111.807 19.5275 112.473 20.952V19.176H114.841V28.5H112.473V26.6685C111.992 27.7785 110.956 28.7405 109.328 28.7405ZM110.105 20.9335C108.94 20.9335 107.719 21.8585 107.719 23.8565C107.719 25.8175 108.921 26.7055 110.087 26.7055C111.345 26.7055 112.473 25.873 112.473 23.8565C112.473 21.877 111.345 20.9335 110.105 20.9335ZM132.596 21.026C131.523 21.026 130.728 21.7105 130.728 23.209V28.5H128.36V23.1535C128.36 21.5995 127.601 21.026 126.621 21.026C125.474 21.026 124.641 21.7105 124.641 23.209V28.5H122.273V19.176H124.641V20.582C125.289 19.3425 126.584 18.917 127.694 18.917C128.878 18.917 130.025 19.398 130.506 20.767C131.227 19.3425 132.541 18.917 133.632 18.917C135.297 18.917 136.814 19.7495 136.814 22.247V28.5H134.446V23.1535C134.446 21.5995 133.651 21.026 132.596 21.026ZM143.328 20.9335C142.107 20.9335 141.275 21.581 141.016 22.8945H145.604C145.437 21.507 144.494 20.9335 143.328 20.9335ZM147.842 24.43H140.979C141.164 25.8545 141.978 26.7425 143.458 26.7425C144.882 26.7425 145.4 26.132 145.641 25.2255L147.787 25.54C147.417 27.7415 145.289 28.7405 143.55 28.7405C140.738 28.7405 138.555 26.872 138.555 23.801C138.555 20.804 140.627 18.917 143.384 18.917C145.974 18.917 147.842 20.8965 147.842 23.69V24.43ZM158.598 15.957V28.5H156.23V26.7795C155.749 27.871 154.713 28.7405 153.066 28.7405C151.198 28.7405 149.052 27.1495 149.052 23.7455C149.052 20.4895 151.179 18.917 153.325 18.917C154.546 18.917 155.564 19.5275 156.23 20.952V15.957H158.598ZM153.862 20.9335C152.696 20.9335 151.475 21.877 151.475 23.8565C151.475 25.7805 152.678 26.7055 153.843 26.7055C155.101 26.7055 156.23 25.836 156.23 23.8565C156.23 21.9325 155.101 20.9335 153.862 20.9335Z" fill="white"/>
<path d="M200.088 16.54C202.392 16.5401 205.087 18.4391 205.087 22.5C205.087 26.7422 202.495 28.8027 199.841 28.8027C198.422 28.8027 197.167 28.257 196.2 26.9639V32.54H193.3V16.8633H196.2V18.459C197.003 17.3681 198.257 16.54 200.088 16.54ZM214.016 16.54C216.32 16.5403 219.014 18.4393 219.014 22.5C219.014 26.7421 216.422 28.8026 213.769 28.8027C212.349 28.8027 211.094 28.257 210.127 26.9639V32.54H207.227V16.8633H210.128V18.459C210.93 17.3681 212.185 16.54 214.016 16.54ZM178.24 23.126C178.796 22.7422 179.557 22.9035 180.051 23.6309C181.285 25.4085 182.869 26.6211 184.905 26.6211C186.901 26.621 188.032 25.6711 189.102 24.2979C189.677 23.5506 190.439 23.4083 190.953 23.8125C191.508 24.2368 191.529 25.0047 190.953 25.752C189.411 27.7722 187.436 28.9843 184.905 28.9844C182.149 28.9844 179.782 27.4895 178.075 24.9238C177.603 24.2571 177.726 23.4896 178.24 23.126ZM225.145 16.54C227.531 16.54 229.28 17.6312 230 20.3789L227.387 20.7822C227.346 19.3886 226.462 18.9649 225.207 18.9648C224.22 18.9648 223.499 19.3889 223.499 20.0557C223.499 20.5807 223.87 21.1262 224.98 21.3281L226.976 21.6914C228.93 22.0556 229.979 23.308 229.979 25.0254C229.979 27.5503 227.654 28.8027 225.474 28.8027C223.17 28.8027 220.619 27.6305 220.208 24.7822L222.82 24.3779C222.964 25.8528 223.89 26.3789 225.371 26.3789C226.502 26.3789 227.264 25.9746 227.264 25.2676C227.264 24.6413 226.914 24.1762 225.68 23.9541L223.869 23.6309C221.956 23.2872 220.784 21.9536 220.784 20.2568C220.784 17.6307 223.211 16.5401 225.145 16.54ZM171.925 24.7012L174.64 16.8428H177.828L173.097 28.499H170.731L166 16.8428H169.188L171.925 24.7012ZM199.183 19.0449C197.599 19.045 196.2 20.1561 196.2 22.6406C196.2 25.0245 197.599 26.2772 199.162 26.2773C200.643 26.2773 202.166 25.1054 202.166 22.6406C202.166 20.2164 200.643 19.0449 199.183 19.0449ZM213.11 19.0449C211.526 19.0449 210.127 20.156 210.127 22.6406C210.127 25.0246 211.526 26.2773 213.09 26.2773C214.571 26.2773 216.093 25.1054 216.093 22.6406C216.093 20.2165 214.571 19.045 213.11 19.0449ZM187.004 18.6006C187.868 18.6007 188.608 19.2474 188.608 20.1768C188.608 21.1057 187.868 21.7519 187.004 21.752C186.14 21.752 185.4 21.1058 185.399 20.1768C185.399 19.2474 186.14 18.6006 187.004 18.6006Z" fill="white"/>
</svg>
