<svg width="300" height="44" viewBox="0 0 300 44" fill="none" xmlns="http://www.w3.org/2000/svg">
<rect width="300" height="44" rx="5" fill="#FF5B24"/>
<path d="M61.8175 16.364H64.2965V22.4505L68.7735 16.364H71.604L67.5895 21.544L72.418 28.5H69.495L66.0725 23.431L64.2965 25.5585V28.5H61.8175V16.364ZM74.2663 15.0505C75.0618 15.0505 75.6538 15.6425 75.6538 16.401C75.6538 17.178 75.0618 17.7515 74.2663 17.7515C73.4708 17.7515 72.8788 17.178 72.8788 16.401C72.8788 15.6425 73.4708 15.0505 74.2663 15.0505ZM75.6908 19.176V28.537C75.6908 30.683 74.4513 31.7745 72.6198 31.7745C72.0093 31.7745 71.4913 31.645 71.1398 31.5155L71.4728 29.6655C71.7688 29.7765 72.0278 29.832 72.2683 29.832C72.9528 29.832 73.3043 29.425 73.3043 28.4815V19.176H75.6908ZM84.9175 18.066H86.712L85.528 20.064C86.49 20.915 87.082 22.1915 87.082 23.8195C87.082 26.872 84.9545 28.7405 82.2905 28.7405C81.5875 28.7405 80.9215 28.611 80.3295 28.352L79.571 29.6285H77.758L79.016 27.5195C78.1095 26.6685 77.536 25.4105 77.536 23.8195C77.536 20.767 79.645 18.917 82.2905 18.917C82.975 18.917 83.604 19.028 84.196 19.2685L84.9175 18.066ZM82.2905 20.9335C81.0325 20.9335 79.9595 21.877 79.9595 23.8195C79.9595 24.5965 80.126 25.207 80.4035 25.6695L83.1415 21.0815C82.8825 20.989 82.5865 20.9335 82.2905 20.9335ZM84.64 23.8195C84.64 23.0425 84.4735 22.432 84.196 21.9695L81.458 26.576C81.717 26.6685 81.9945 26.724 82.2905 26.724C83.567 26.724 84.64 25.7805 84.64 23.8195ZM94.2627 18.917C96.1497 18.917 98.3512 20.434 98.3512 23.69C98.3512 27.094 96.2422 28.7405 94.0777 28.7405C92.9122 28.7405 91.9317 28.13 91.1732 26.8905V31.7375H88.8052V19.176H91.1732V20.8595C91.7652 19.8235 92.7457 18.917 94.2627 18.917ZM93.5412 20.9335C92.3017 20.9335 91.1732 21.8215 91.1732 23.801C91.1732 25.688 92.3017 26.7055 93.5227 26.7055C94.7067 26.7055 95.9277 25.7805 95.9277 23.801C95.9277 21.877 94.7067 20.9335 93.5412 20.9335ZM109.705 21.026C108.447 21.026 107.559 21.7105 107.559 23.209V28.5H105.191V19.176H107.559V20.582C108.225 19.3425 109.539 18.917 110.667 18.917C112.332 18.917 113.905 19.7495 113.905 22.247V28.5H111.518V23.1535C111.518 21.5995 110.723 21.026 109.705 21.026ZM120.393 18.917C123.057 18.917 125.184 20.767 125.184 23.8195C125.184 26.872 123.057 28.7405 120.393 28.7405C117.747 28.7405 115.638 26.872 115.638 23.8195C115.638 20.767 117.747 18.917 120.393 18.917ZM120.393 20.9335C119.135 20.9335 118.062 21.877 118.062 23.8195C118.062 25.7805 119.135 26.724 120.393 26.724C121.669 26.724 122.742 25.7805 122.742 23.8195C122.742 21.877 121.669 20.9335 120.393 20.9335ZM142.325 21.026C141.252 21.026 140.457 21.7105 140.457 23.209V28.5H138.089V23.1535C138.089 21.5995 137.33 21.026 136.35 21.026C135.203 21.026 134.37 21.7105 134.37 23.209V28.5H132.002V19.176H134.37V20.582C135.018 19.3425 136.313 18.917 137.423 18.917C138.607 18.917 139.754 19.398 140.235 20.767C140.956 19.3425 142.27 18.917 143.361 18.917C145.026 18.917 146.543 19.7495 146.543 22.247V28.5H144.175V23.1535C144.175 21.5995 143.38 21.026 142.325 21.026ZM153.057 20.9335C151.836 20.9335 151.004 21.581 150.745 22.8945H155.333C155.166 21.507 154.223 20.9335 153.057 20.9335ZM157.571 24.43H150.708C150.893 25.8545 151.707 26.7425 153.187 26.7425C154.611 26.7425 155.129 26.132 155.37 25.2255L157.516 25.54C157.146 27.7415 155.018 28.7405 153.279 28.7405C150.467 28.7405 148.284 26.872 148.284 23.801C148.284 20.804 150.356 18.917 153.113 18.917C155.703 18.917 157.571 20.8965 157.571 23.69V24.43ZM168.327 15.957V28.5H165.959V26.7795C165.478 27.871 164.442 28.7405 162.795 28.7405C160.927 28.7405 158.781 27.1495 158.781 23.7455C158.781 20.4895 160.908 18.917 163.054 18.917C164.275 18.917 165.293 19.5275 165.959 20.952V15.957H168.327ZM163.591 20.9335C162.425 20.9335 161.204 21.877 161.204 23.8565C161.204 25.7805 162.407 26.7055 163.572 26.7055C164.83 26.7055 165.959 25.836 165.959 23.8565C165.959 21.9325 164.83 20.9335 163.591 20.9335Z" fill="white"/>
<path d="M210.088 16.54C212.392 16.5401 215.087 18.4391 215.087 22.5C215.087 26.7422 212.495 28.8027 209.841 28.8027C208.422 28.8027 207.167 28.257 206.2 26.9639V32.54H203.3V16.8633H206.2V18.459C207.003 17.3681 208.257 16.54 210.088 16.54ZM224.016 16.54C226.32 16.5403 229.014 18.4393 229.014 22.5C229.014 26.7421 226.422 28.8026 223.769 28.8027C222.349 28.8027 221.094 28.257 220.127 26.9639V32.54H217.227V16.8633H220.128V18.459C220.93 17.3681 222.185 16.54 224.016 16.54ZM188.24 23.126C188.796 22.7422 189.557 22.9035 190.051 23.6309C191.285 25.4085 192.869 26.6211 194.905 26.6211C196.901 26.621 198.032 25.6711 199.102 24.2979C199.677 23.5506 200.439 23.4083 200.953 23.8125C201.508 24.2368 201.529 25.0047 200.953 25.752C199.411 27.7722 197.436 28.9843 194.905 28.9844C192.149 28.9844 189.782 27.4895 188.075 24.9238C187.603 24.2571 187.726 23.4896 188.24 23.126ZM235.145 16.54C237.531 16.54 239.28 17.6312 240 20.3789L237.387 20.7822C237.346 19.3886 236.462 18.9649 235.207 18.9648C234.22 18.9648 233.499 19.3889 233.499 20.0557C233.499 20.5807 233.87 21.1262 234.98 21.3281L236.976 21.6914C238.93 22.0556 239.979 23.308 239.979 25.0254C239.979 27.5503 237.654 28.8027 235.474 28.8027C233.17 28.8027 230.619 27.6305 230.208 24.7822L232.82 24.3779C232.964 25.8528 233.89 26.3789 235.371 26.3789C236.502 26.3789 237.264 25.9746 237.264 25.2676C237.264 24.6413 236.914 24.1762 235.68 23.9541L233.869 23.6309C231.956 23.2872 230.784 21.9536 230.784 20.2568C230.784 17.6307 233.211 16.5401 235.145 16.54ZM181.925 24.7012L184.64 16.8428H187.828L183.097 28.499H180.731L176 16.8428H179.188L181.925 24.7012ZM209.183 19.0449C207.599 19.045 206.2 20.1561 206.2 22.6406C206.2 25.0245 207.599 26.2772 209.162 26.2773C210.643 26.2773 212.166 25.1054 212.166 22.6406C212.166 20.2164 210.643 19.0449 209.183 19.0449ZM223.11 19.0449C221.526 19.0449 220.127 20.156 220.127 22.6406C220.127 25.0246 221.526 26.2773 223.09 26.2773C224.571 26.2773 226.093 25.1054 226.093 22.6406C226.093 20.2165 224.571 19.045 223.11 19.0449ZM197.004 18.6006C197.868 18.6007 198.608 19.2474 198.608 20.1768C198.608 21.1057 197.868 21.7519 197.004 21.752C196.14 21.752 195.4 21.1058 195.399 20.1768C195.399 19.2474 196.14 18.6006 197.004 18.6006Z" fill="white"/>
</svg>
