<svg width="300" height="44" viewBox="0 0 300 44" fill="none" xmlns="http://www.w3.org/2000/svg">
<rect width="300" height="44" rx="22" fill="#FF5B24"/>
<path d="M72.1786 16.364H76.5261C79.0791 16.364 80.5036 17.6405 80.5036 19.62C80.5036 20.5265 79.9486 21.6365 78.8016 22.2655C80.3926 22.7835 81.0216 23.875 81.0216 24.9295C81.0216 26.9275 79.3751 28.5 76.7481 28.5H72.1786V16.364ZM74.6576 23.394V26.354H76.5261C77.6546 26.354 78.4316 25.91 78.4316 24.874C78.4316 24.023 77.6731 23.394 76.5261 23.394H74.6576ZM74.6576 18.51V21.3405H76.3226C77.3031 21.3405 77.9691 20.804 77.9691 19.9345C77.9691 19.028 77.3956 18.51 76.3226 18.51H74.6576ZM87.1056 20.9335C85.8846 20.9335 85.0521 21.581 84.7931 22.8945H89.3811C89.2146 21.507 88.2711 20.9335 87.1056 20.9335ZM91.6196 24.43H84.7561C84.9411 25.8545 85.7551 26.7425 87.2351 26.7425C88.6596 26.7425 89.1776 26.132 89.4181 25.2255L91.5641 25.54C91.1941 27.7415 89.0666 28.7405 87.3276 28.7405C84.5156 28.7405 82.3326 26.872 82.3326 23.801C82.3326 20.804 84.4046 18.917 87.1611 18.917C89.7511 18.917 91.6196 20.8965 91.6196 23.69V24.43ZM93.9947 16.919L96.4182 16.6045V19.176H98.6382V21.0445H96.4182V25.6695C96.4182 26.3355 96.6772 26.6685 97.4357 26.6685C97.8427 26.6685 98.0832 26.613 98.4717 26.5205L98.7862 28.426C98.2497 28.5925 97.5652 28.7405 96.8992 28.7405C94.9012 28.7405 93.9947 27.649 93.9947 25.873V21.0445H92.3297V19.176H93.9947V16.919ZM103.89 28.7405C102.003 28.7405 99.857 27.1495 99.857 23.7455C99.857 20.4895 101.966 18.917 103.964 18.917C105.333 18.917 106.369 19.5275 107.035 20.952V19.176H109.403V28.5H107.035V26.6685C106.554 27.7785 105.518 28.7405 103.89 28.7405ZM104.667 20.9335C103.502 20.9335 102.281 21.8585 102.281 23.8565C102.281 25.8175 103.483 26.7055 104.649 26.7055C105.907 26.7055 107.035 25.873 107.035 23.8565C107.035 21.877 105.907 20.9335 104.667 20.9335ZM111.849 15.957H114.217V28.5H111.849V15.957ZM131.964 21.026C130.891 21.026 130.095 21.7105 130.095 23.209V28.5H127.727V23.1535C127.727 21.5995 126.969 21.026 125.988 21.026C124.841 21.026 124.009 21.7105 124.009 23.209V28.5H121.641V19.176H124.009V20.582C124.656 19.3425 125.951 18.917 127.061 18.917C128.245 18.917 129.392 19.398 129.873 20.767C130.595 19.3425 131.908 18.917 133 18.917C134.665 18.917 136.182 19.7495 136.182 22.247V28.5H133.814V23.1535C133.814 21.5995 133.018 21.026 131.964 21.026ZM142.696 20.9335C141.475 20.9335 140.642 21.581 140.383 22.8945H144.971C144.805 21.507 143.861 20.9335 142.696 20.9335ZM147.21 24.43H140.346C140.531 25.8545 141.345 26.7425 142.825 26.7425C144.25 26.7425 144.768 26.132 145.008 25.2255L147.154 25.54C146.784 27.7415 144.657 28.7405 142.918 28.7405C140.106 28.7405 137.923 26.872 137.923 23.801C137.923 20.804 139.995 18.917 142.751 18.917C145.341 18.917 147.21 20.8965 147.21 23.69V24.43ZM157.966 15.957V28.5H155.598V26.7795C155.117 27.871 154.081 28.7405 152.434 28.7405C150.566 28.7405 148.42 27.1495 148.42 23.7455C148.42 20.4895 150.547 18.917 152.693 18.917C153.914 18.917 154.932 19.5275 155.598 20.952V15.957H157.966ZM153.23 20.9335C152.064 20.9335 150.843 21.877 150.843 23.8565C150.843 25.7805 152.046 26.7055 153.211 26.7055C154.469 26.7055 155.598 25.836 155.598 23.8565C155.598 21.9325 154.469 20.9335 153.23 20.9335Z" fill="white"/>
<path d="M199.588 16.54C201.892 16.5401 204.587 18.4391 204.587 22.5C204.587 26.7422 201.995 28.8027 199.341 28.8027C197.922 28.8027 196.667 28.257 195.7 26.9639V32.54H192.8V16.8633H195.7V18.459C196.503 17.3681 197.757 16.54 199.588 16.54ZM213.516 16.54C215.82 16.5403 218.514 18.4393 218.514 22.5C218.514 26.7421 215.922 28.8026 213.269 28.8027C211.849 28.8027 210.594 28.257 209.627 26.9639V32.54H206.727V16.8633H209.628V18.459C210.43 17.3681 211.685 16.54 213.516 16.54ZM177.74 23.126C178.296 22.7422 179.057 22.9035 179.551 23.6309C180.785 25.4085 182.369 26.6211 184.405 26.6211C186.401 26.621 187.532 25.6711 188.602 24.2979C189.177 23.5506 189.939 23.4083 190.453 23.8125C191.008 24.2368 191.029 25.0047 190.453 25.752C188.911 27.7722 186.936 28.9843 184.405 28.9844C181.649 28.9844 179.282 27.4895 177.575 24.9238C177.103 24.2571 177.226 23.4896 177.74 23.126ZM224.645 16.54C227.031 16.54 228.78 17.6312 229.5 20.3789L226.887 20.7822C226.846 19.3886 225.962 18.9649 224.707 18.9648C223.72 18.9648 222.999 19.3889 222.999 20.0557C222.999 20.5807 223.37 21.1262 224.48 21.3281L226.476 21.6914C228.43 22.0556 229.479 23.308 229.479 25.0254C229.479 27.5503 227.154 28.8027 224.974 28.8027C222.67 28.8027 220.119 27.6305 219.708 24.7822L222.32 24.3779C222.464 25.8528 223.39 26.3789 224.871 26.3789C226.002 26.3789 226.764 25.9746 226.764 25.2676C226.764 24.6413 226.414 24.1762 225.18 23.9541L223.369 23.6309C221.456 23.2872 220.284 21.9536 220.284 20.2568C220.284 17.6307 222.711 16.5401 224.645 16.54ZM171.425 24.7012L174.14 16.8428H177.328L172.597 28.499H170.231L165.5 16.8428H168.688L171.425 24.7012ZM198.683 19.0449C197.099 19.045 195.7 20.1561 195.7 22.6406C195.7 25.0245 197.099 26.2772 198.662 26.2773C200.143 26.2773 201.666 25.1054 201.666 22.6406C201.666 20.2164 200.143 19.0449 198.683 19.0449ZM212.61 19.0449C211.026 19.0449 209.627 20.156 209.627 22.6406C209.627 25.0246 211.026 26.2773 212.59 26.2773C214.071 26.2773 215.593 25.1054 215.593 22.6406C215.593 20.2165 214.071 19.045 212.61 19.0449ZM186.504 18.6006C187.368 18.6007 188.108 19.2474 188.108 20.1768C188.108 21.1057 187.368 21.7519 186.504 21.752C185.64 21.752 184.9 21.1058 184.899 20.1768C184.899 19.2474 185.64 18.6006 186.504 18.6006Z" fill="white"/>
</svg>
