<svg width="300" height="44" viewBox="0 0 300 44" fill="none" xmlns="http://www.w3.org/2000/svg">
<rect width="300" height="44" rx="22" fill="black"/>
<path d="M50.5169 16.364H52.9959V21.285H58.7124V16.364H61.1914V28.5H58.7124V23.4495H52.9959V28.5H50.5169V16.364ZM67.2152 28.7405C65.3282 28.7405 63.1822 27.1495 63.1822 23.7455C63.1822 20.4895 65.2912 18.917 67.2892 18.917C68.6582 18.917 69.6942 19.5275 70.3602 20.952V19.176H72.7282V28.5H70.3602V26.6685C69.8792 27.7785 68.8432 28.7405 67.2152 28.7405ZM67.9922 20.9335C66.8267 20.9335 65.6057 21.8585 65.6057 23.8565C65.6057 25.8175 66.8082 26.7055 67.9737 26.7055C69.2317 26.7055 70.3602 25.873 70.3602 23.8565C70.3602 21.877 69.2317 20.9335 67.9922 20.9335ZM75.1741 15.957H77.5421V28.5H75.1741V15.957ZM88.9338 15.957V28.5H86.5658V26.7795C86.0848 27.871 85.0488 28.7405 83.4023 28.7405C81.5338 28.7405 79.3878 27.1495 79.3878 23.7455C79.3878 20.4895 81.5153 18.917 83.6613 18.917C84.8823 18.917 85.8998 19.5275 86.5658 20.952V15.957H88.9338ZM84.1978 20.9335C83.0323 20.9335 81.8113 21.877 81.8113 23.8565C81.8113 25.7805 83.0138 26.7055 84.1793 26.7055C85.4373 26.7055 86.5658 25.836 86.5658 23.8565C86.5658 21.9325 85.4373 20.9335 84.1978 20.9335ZM96.7915 28.5V21.0445H95.515V19.176H96.7915V18.843C96.7915 16.808 98.142 15.6425 100.029 15.6425C100.751 15.6425 101.324 15.7905 101.768 15.957L101.472 17.7885C101.102 17.6775 100.751 17.6035 100.362 17.6035C99.6035 17.6035 99.178 18.029 99.178 18.8985V19.176H101.361V21.0445H99.178V28.5H96.7915ZM107.481 21.4145C106.223 21.4145 105.039 22.099 105.039 24.4855V28.5H102.671V19.176H105.039V21.4145C105.798 19.398 107.278 18.917 108.166 18.917C108.406 18.917 108.684 18.954 108.887 19.0465L108.702 21.618C108.351 21.4885 107.981 21.4145 107.481 21.4145ZM113.483 28.7405C111.596 28.7405 109.45 27.1495 109.45 23.7455C109.45 20.4895 111.559 18.917 113.557 18.917C114.926 18.917 115.962 19.5275 116.628 20.952V19.176H118.996V28.5H116.628V26.6685C116.147 27.7785 115.111 28.7405 113.483 28.7405ZM114.26 20.9335C113.095 20.9335 111.874 21.8585 111.874 23.8565C111.874 25.8175 113.076 26.7055 114.242 26.7055C115.5 26.7055 116.628 25.873 116.628 23.8565C116.628 21.877 115.5 20.9335 114.26 20.9335ZM131.765 21.026C130.692 21.026 129.897 21.7105 129.897 23.209V28.5H127.529V23.1535C127.529 21.5995 126.77 21.026 125.79 21.026C124.643 21.026 123.81 21.7105 123.81 23.209V28.5H121.442V19.176H123.81V20.582C124.458 19.3425 125.753 18.917 126.863 18.917C128.047 18.917 129.194 19.398 129.675 20.767C130.396 19.3425 131.71 18.917 132.801 18.917C134.466 18.917 135.983 19.7495 135.983 22.247V28.5H133.615V23.1535C133.615 21.5995 132.82 21.026 131.765 21.026ZM153.626 21.026C152.553 21.026 151.757 21.7105 151.757 23.209V28.5H149.389V23.1535C149.389 21.5995 148.631 21.026 147.65 21.026C146.503 21.026 145.671 21.7105 145.671 23.209V28.5H143.303V19.176H145.671V20.582C146.318 19.3425 147.613 18.917 148.723 18.917C149.907 18.917 151.054 19.398 151.535 20.767C152.257 19.3425 153.57 18.917 154.662 18.917C156.327 18.917 157.844 19.7495 157.844 22.247V28.5H155.476V23.1535C155.476 21.5995 154.68 21.026 153.626 21.026ZM164.358 20.9335C163.137 20.9335 162.304 21.581 162.045 22.8945H166.633C166.467 21.507 165.523 20.9335 164.358 20.9335ZM168.872 24.43H162.008C162.193 25.8545 163.007 26.7425 164.487 26.7425C165.912 26.7425 166.43 26.132 166.67 25.2255L168.816 25.54C168.446 27.7415 166.319 28.7405 164.58 28.7405C161.768 28.7405 159.585 26.872 159.585 23.801C159.585 20.804 161.657 18.917 164.413 18.917C167.003 18.917 168.872 20.8965 168.872 23.69V24.43ZM179.627 15.957V28.5H177.259V26.7795C176.778 27.871 175.742 28.7405 174.096 28.7405C172.227 28.7405 170.081 27.1495 170.081 23.7455C170.081 20.4895 172.209 18.917 174.355 18.917C175.576 18.917 176.593 19.5275 177.259 20.952V15.957H179.627ZM174.891 20.9335C173.726 20.9335 172.505 21.877 172.505 23.8565C172.505 25.7805 173.707 26.7055 174.873 26.7055C176.131 26.7055 177.259 25.836 177.259 23.8565C177.259 21.9325 176.131 20.9335 174.891 20.9335Z" fill="white"/>
<path d="M221.088 16.54C223.392 16.5401 226.087 18.4391 226.087 22.5C226.087 26.7422 223.495 28.8027 220.841 28.8027C219.422 28.8027 218.167 28.257 217.2 26.9639V32.54H214.3V16.8633H217.2V18.459C218.003 17.3681 219.257 16.54 221.088 16.54ZM235.016 16.54C237.32 16.5403 240.014 18.4393 240.014 22.5C240.014 26.7421 237.422 28.8026 234.769 28.8027C233.349 28.8027 232.094 28.257 231.127 26.9639V32.54H228.227V16.8633H231.128V18.459C231.93 17.3681 233.185 16.54 235.016 16.54ZM199.24 23.126C199.796 22.7422 200.557 22.9035 201.051 23.6309C202.285 25.4085 203.869 26.6211 205.905 26.6211C207.901 26.621 209.032 25.6711 210.102 24.2979C210.677 23.5506 211.439 23.4083 211.953 23.8125C212.508 24.2368 212.529 25.0047 211.953 25.752C210.411 27.7722 208.436 28.9843 205.905 28.9844C203.149 28.9844 200.782 27.4895 199.075 24.9238C198.603 24.2571 198.726 23.4896 199.24 23.126ZM246.145 16.54C248.531 16.54 250.28 17.6312 251 20.3789L248.387 20.7822C248.346 19.3886 247.462 18.9649 246.207 18.9648C245.22 18.9648 244.499 19.3889 244.499 20.0557C244.499 20.5807 244.87 21.1262 245.98 21.3281L247.976 21.6914C249.93 22.0556 250.979 23.308 250.979 25.0254C250.979 27.5503 248.654 28.8027 246.474 28.8027C244.17 28.8027 241.619 27.6305 241.208 24.7822L243.82 24.3779C243.964 25.8528 244.89 26.3789 246.371 26.3789C247.502 26.3789 248.264 25.9746 248.264 25.2676C248.264 24.6413 247.914 24.1762 246.68 23.9541L244.869 23.6309C242.956 23.2872 241.784 21.9536 241.784 20.2568C241.784 17.6307 244.211 16.5401 246.145 16.54ZM192.925 24.7012L195.64 16.8428H198.828L194.097 28.499H191.731L187 16.8428H190.188L192.925 24.7012ZM220.183 19.0449C218.599 19.045 217.2 20.1561 217.2 22.6406C217.2 25.0245 218.599 26.2772 220.162 26.2773C221.643 26.2773 223.166 25.1054 223.166 22.6406C223.166 20.2164 221.643 19.0449 220.183 19.0449ZM234.11 19.0449C232.526 19.0449 231.127 20.156 231.127 22.6406C231.127 25.0246 232.526 26.2773 234.09 26.2773C235.571 26.2773 237.093 25.1054 237.093 22.6406C237.093 20.2165 235.571 19.045 234.11 19.0449ZM208.004 18.6006C208.868 18.6007 209.608 19.2474 209.608 20.1768C209.608 21.1057 208.868 21.7519 208.004 21.752C207.14 21.752 206.4 21.1058 206.399 20.1768C206.399 19.2474 207.14 18.6006 208.004 18.6006Z" fill="white"/>
</svg>
