<svg width="300" height="44" viewBox="0 0 300 44" fill="none" xmlns="http://www.w3.org/2000/svg">
<rect width="300" height="44" rx="5" fill="black"/>
<path d="M55.0336 16.364H59.6401C62.3411 16.364 63.9136 17.733 63.9136 20.0455C63.9136 21.433 63.0811 22.5985 61.9526 23.2645C62.7296 23.5975 63.2846 24.1895 63.5436 25.281L64.0061 27.168C64.1541 27.7415 64.4686 28.204 64.9496 28.5H62.0451C61.7306 28.2965 61.4716 27.982 61.3791 27.39L61.0646 25.503C60.8981 24.43 60.1766 23.949 58.8076 23.949H57.5126V28.5H55.0336V16.364ZM59.4366 18.399H57.5126V21.877H59.4366C60.6021 21.877 61.2496 21.1555 61.2496 20.175C61.2496 19.028 60.5096 18.399 59.4366 18.399ZM69.9245 20.9335C68.7035 20.9335 67.871 21.581 67.612 22.8945H72.2C72.0335 21.507 71.09 20.9335 69.9245 20.9335ZM74.4385 24.43H67.575C67.76 25.8545 68.574 26.7425 70.054 26.7425C71.4785 26.7425 71.9965 26.132 72.237 25.2255L74.383 25.54C74.013 27.7415 71.8855 28.7405 70.1465 28.7405C67.3345 28.7405 65.1515 26.872 65.1515 23.801C65.1515 20.804 67.2235 18.917 69.98 18.917C72.57 18.917 74.4385 20.8965 74.4385 23.69V24.43ZM79.533 27.8895C77.6645 27.8895 75.685 26.428 75.685 23.3015C75.685 20.3415 77.646 18.917 79.7365 18.917C80.939 18.917 81.8085 19.509 82.53 20.878V19.1575H84.9165V27.1865C84.9165 30.313 83.085 31.867 80.051 31.867C78.312 31.867 76.0735 31.0715 75.611 28.7035L77.942 28.315C78.09 29.4805 79.089 29.7765 80.1065 29.7765C81.7345 29.7765 82.53 29.0365 82.53 27.316V25.984C82.0305 26.946 81.1425 27.8895 79.533 27.8895ZM80.2915 20.9335C79.163 20.9335 78.127 21.766 78.127 23.4125C78.127 25.133 79.1075 25.9285 80.2915 25.9285C81.531 25.9285 82.53 25.133 82.53 23.431C82.53 21.8215 81.531 20.9335 80.2915 20.9335ZM87.3509 19.176H89.7374V28.5H87.3509V19.176ZM88.5534 15.0505C89.3489 15.0505 89.9409 15.6425 89.9409 16.401C89.9409 17.178 89.3489 17.7515 88.5534 17.7515C87.7579 17.7515 87.1659 17.178 87.1659 16.401C87.1659 15.6425 87.7579 15.0505 88.5534 15.0505ZM91.8971 21.8585C91.8971 19.7495 93.8766 18.917 95.4861 18.917C97.4471 18.917 98.8716 19.7865 99.4266 21.7845L97.2991 22.1545C97.2436 21.1185 96.5406 20.73 95.5416 20.73C94.7276 20.73 94.1911 21.1 94.1911 21.692C94.1911 22.099 94.4686 22.5245 95.2641 22.691L97.2066 23.098C98.8161 23.4125 99.5746 24.319 99.5746 25.6695C99.5746 27.6305 97.7246 28.7405 95.7636 28.7405C93.8396 28.7405 91.7676 27.871 91.4716 25.725L93.5806 25.355C93.6916 26.354 94.4871 26.9275 95.6711 26.9275C96.6701 26.9275 97.2806 26.5575 97.2806 25.873C97.2806 25.392 97.0031 25.0775 96.0041 24.874L94.2281 24.504C92.6371 24.171 91.8971 23.1905 91.8971 21.8585ZM101.926 16.919L104.349 16.6045V19.176H106.569V21.0445H104.349V25.6695C104.349 26.3355 104.608 26.6685 105.367 26.6685C105.774 26.6685 106.014 26.613 106.403 26.5205L106.717 28.426C106.181 28.5925 105.496 28.7405 104.83 28.7405C102.832 28.7405 101.926 27.649 101.926 25.873V21.0445H100.261V19.176H101.926V16.919ZM113.19 21.4145C111.932 21.4145 110.748 22.099 110.748 24.4855V28.5H108.38V19.176H110.748V21.4145C111.507 19.398 112.987 18.917 113.875 18.917C114.115 18.917 114.393 18.954 114.596 19.0465L114.411 21.618C114.06 21.4885 113.69 21.4145 113.19 21.4145ZM119.932 20.9335C118.711 20.9335 117.879 21.581 117.62 22.8945H122.208C122.041 21.507 121.098 20.9335 119.932 20.9335ZM124.446 24.43H117.583C117.768 25.8545 118.582 26.7425 120.062 26.7425C121.486 26.7425 122.004 26.132 122.245 25.2255L124.391 25.54C124.021 27.7415 121.893 28.7405 120.154 28.7405C117.342 28.7405 115.159 26.872 115.159 23.801C115.159 20.804 117.231 18.917 119.988 18.917C122.578 18.917 124.446 20.8965 124.446 23.69V24.43ZM131.058 21.4145C129.8 21.4145 128.616 22.099 128.616 24.4855V28.5H126.248V19.176H128.616V21.4145C129.374 19.398 130.854 18.917 131.742 18.917C131.983 18.917 132.26 18.954 132.464 19.0465L132.279 21.618C131.927 21.4885 131.557 21.4145 131.058 21.4145ZM149.109 21.026C148.036 21.026 147.24 21.7105 147.24 23.209V28.5H144.872V23.1535C144.872 21.5995 144.114 21.026 143.133 21.026C141.986 21.026 141.154 21.7105 141.154 23.209V28.5H138.786V19.176H141.154V20.582C141.801 19.3425 143.096 18.917 144.206 18.917C145.39 18.917 146.537 19.398 147.018 20.767C147.74 19.3425 149.053 18.917 150.145 18.917C151.81 18.917 153.327 19.7495 153.327 22.247V28.5H150.959V23.1535C150.959 21.5995 150.163 21.026 149.109 21.026ZM159.841 20.9335C158.62 20.9335 157.787 21.581 157.528 22.8945H162.116C161.95 21.507 161.006 20.9335 159.841 20.9335ZM164.355 24.43H157.491C157.676 25.8545 158.49 26.7425 159.97 26.7425C161.395 26.7425 161.913 26.132 162.153 25.2255L164.299 25.54C163.929 27.7415 161.802 28.7405 160.063 28.7405C157.251 28.7405 155.068 26.872 155.068 23.801C155.068 20.804 157.14 18.917 159.896 18.917C162.486 18.917 164.355 20.8965 164.355 23.69V24.43ZM175.111 15.957V28.5H172.743V26.7795C172.262 27.871 171.226 28.7405 169.579 28.7405C167.711 28.7405 165.565 27.1495 165.565 23.7455C165.565 20.4895 167.692 18.917 169.838 18.917C171.059 18.917 172.077 19.5275 172.743 20.952V15.957H175.111ZM170.375 20.9335C169.209 20.9335 167.988 21.877 167.988 23.8565C167.988 25.7805 169.191 26.7055 170.356 26.7055C171.614 26.7055 172.743 25.836 172.743 23.8565C172.743 21.9325 171.614 20.9335 170.375 20.9335Z" fill="white"/>
<path d="M216.588 16.54C218.892 16.5401 221.587 18.4391 221.587 22.5C221.587 26.7422 218.995 28.8027 216.341 28.8027C214.922 28.8027 213.667 28.257 212.7 26.9639V32.54H209.8V16.8633H212.7V18.459C213.503 17.3681 214.757 16.54 216.588 16.54ZM230.516 16.54C232.82 16.5403 235.514 18.4393 235.514 22.5C235.514 26.7421 232.922 28.8026 230.269 28.8027C228.849 28.8027 227.594 28.257 226.627 26.9639V32.54H223.727V16.8633H226.628V18.459C227.43 17.3681 228.685 16.54 230.516 16.54ZM194.74 23.126C195.296 22.7422 196.057 22.9035 196.551 23.6309C197.785 25.4085 199.369 26.6211 201.405 26.6211C203.401 26.621 204.532 25.6711 205.602 24.2979C206.177 23.5506 206.939 23.4083 207.453 23.8125C208.008 24.2368 208.029 25.0047 207.453 25.752C205.911 27.7722 203.936 28.9843 201.405 28.9844C198.649 28.9844 196.282 27.4895 194.575 24.9238C194.103 24.2571 194.226 23.4896 194.74 23.126ZM241.645 16.54C244.031 16.54 245.78 17.6312 246.5 20.3789L243.887 20.7822C243.846 19.3886 242.962 18.9649 241.707 18.9648C240.72 18.9648 239.999 19.3889 239.999 20.0557C239.999 20.5807 240.37 21.1262 241.48 21.3281L243.476 21.6914C245.43 22.0556 246.479 23.308 246.479 25.0254C246.479 27.5503 244.154 28.8027 241.974 28.8027C239.67 28.8027 237.119 27.6305 236.708 24.7822L239.32 24.3779C239.464 25.8528 240.39 26.3789 241.871 26.3789C243.002 26.3789 243.764 25.9746 243.764 25.2676C243.764 24.6413 243.414 24.1762 242.18 23.9541L240.369 23.6309C238.456 23.2872 237.284 21.9536 237.284 20.2568C237.284 17.6307 239.711 16.5401 241.645 16.54ZM188.425 24.7012L191.14 16.8428H194.328L189.597 28.499H187.231L182.5 16.8428H185.688L188.425 24.7012ZM215.683 19.0449C214.099 19.045 212.7 20.1561 212.7 22.6406C212.7 25.0245 214.099 26.2772 215.662 26.2773C217.143 26.2773 218.666 25.1054 218.666 22.6406C218.666 20.2164 217.143 19.0449 215.683 19.0449ZM229.61 19.0449C228.026 19.0449 226.627 20.156 226.627 22.6406C226.627 25.0246 228.026 26.2773 229.59 26.2773C231.071 26.2773 232.593 25.1054 232.593 22.6406C232.593 20.2165 231.071 19.045 229.61 19.0449ZM203.504 18.6006C204.368 18.6007 205.108 19.2474 205.108 20.1768C205.108 21.1057 204.368 21.7519 203.504 21.752C202.64 21.752 201.9 21.1058 201.899 20.1768C201.899 19.2474 202.64 18.6006 203.504 18.6006Z" fill="white"/>
</svg>
