<svg width="300" height="44" viewBox="0 0 300 44" fill="none" xmlns="http://www.w3.org/2000/svg">
<rect width="300" height="44" rx="22" fill="white"/>
<path d="M63.1634 16.364H67.5109C70.0639 16.364 71.4884 17.6405 71.4884 19.62C71.4884 20.5265 70.9334 21.6365 69.7864 22.2655C71.3774 22.7835 72.0064 23.875 72.0064 24.9295C72.0064 26.9275 70.3599 28.5 67.7329 28.5H63.1634V16.364ZM65.6424 23.394V26.354H67.5109C68.6394 26.354 69.4164 25.91 69.4164 24.874C69.4164 24.023 68.6579 23.394 67.5109 23.394H65.6424ZM65.6424 18.51V21.3405H67.3074C68.2879 21.3405 68.9539 20.804 68.9539 19.9345C68.9539 19.028 68.3804 18.51 67.3074 18.51H65.6424ZM78.0905 20.9335C76.8695 20.9335 76.037 21.581 75.778 22.8945H80.366C80.1995 21.507 79.256 20.9335 78.0905 20.9335ZM82.6045 24.43H75.741C75.926 25.8545 76.74 26.7425 78.22 26.7425C79.6445 26.7425 80.1625 26.132 80.403 25.2255L82.549 25.54C82.179 27.7415 80.0515 28.7405 78.3125 28.7405C75.5005 28.7405 73.3175 26.872 73.3175 23.801C73.3175 20.804 75.3895 18.917 78.146 18.917C80.736 18.917 82.6045 20.8965 82.6045 23.69V24.43ZM84.4061 28.5V15.957H86.7741V23.6715L90.5666 19.176H93.1751L89.7341 22.987L93.5081 28.5H90.8996L88.3096 24.578L86.7741 26.2615V28.5H84.4061ZM99.279 21.4145C98.021 21.4145 96.837 22.099 96.837 24.4855V28.5H94.469V19.176H96.837V21.4145C97.5955 19.398 99.0755 18.917 99.9635 18.917C100.204 18.917 100.482 18.954 100.685 19.0465L100.5 21.618C100.149 21.4885 99.7785 21.4145 99.279 21.4145ZM106.021 20.9335C104.8 20.9335 103.968 21.581 103.709 22.8945H108.297C108.13 21.507 107.187 20.9335 106.021 20.9335ZM110.535 24.43H103.672C103.857 25.8545 104.671 26.7425 106.151 26.7425C107.575 26.7425 108.093 26.132 108.334 25.2255L110.48 25.54C110.11 27.7415 107.982 28.7405 106.243 28.7405C103.431 28.7405 101.248 26.872 101.248 23.801C101.248 20.804 103.32 18.917 106.077 18.917C108.667 18.917 110.535 20.8965 110.535 23.69V24.43ZM112.762 28.5V21.0445H111.486V19.176H112.762V18.843C112.762 16.808 114.113 15.6425 116 15.6425C116.721 15.6425 117.295 15.7905 117.739 15.957L117.443 17.7885C117.073 17.6775 116.721 17.6035 116.333 17.6035C115.574 17.6035 115.149 18.029 115.149 18.8985V19.176H117.332V21.0445H115.149V28.5H112.762ZM119.215 16.919L121.639 16.6045V19.176H123.859V21.0445H121.639V25.6695C121.639 26.3355 121.898 26.6685 122.656 26.6685C123.063 26.6685 123.304 26.613 123.692 26.5205L124.007 28.426C123.47 28.5925 122.786 28.7405 122.12 28.7405C120.122 28.7405 119.215 27.649 119.215 25.873V21.0445H117.55V19.176H119.215V16.919ZM140.979 21.026C139.906 21.026 139.111 21.7105 139.111 23.209V28.5H136.743V23.1535C136.743 21.5995 135.984 21.026 135.004 21.026C133.857 21.026 133.024 21.7105 133.024 23.209V28.5H130.656V19.176H133.024V20.582C133.672 19.3425 134.967 18.917 136.077 18.917C137.261 18.917 138.408 19.398 138.889 20.767C139.61 19.3425 140.924 18.917 142.015 18.917C143.68 18.917 145.197 19.7495 145.197 22.247V28.5H142.829V23.1535C142.829 21.5995 142.034 21.026 140.979 21.026ZM151.711 20.9335C150.49 20.9335 149.658 21.581 149.399 22.8945H153.987C153.82 21.507 152.877 20.9335 151.711 20.9335ZM156.225 24.43H149.362C149.547 25.8545 150.361 26.7425 151.841 26.7425C153.265 26.7425 153.783 26.132 154.024 25.2255L156.17 25.54C155.8 27.7415 153.672 28.7405 151.933 28.7405C149.121 28.7405 146.938 26.872 146.938 23.801C146.938 20.804 149.01 18.917 151.767 18.917C154.357 18.917 156.225 20.8965 156.225 23.69V24.43ZM166.981 15.957V28.5H164.613V26.7795C164.132 27.871 163.096 28.7405 161.449 28.7405C159.581 28.7405 157.435 27.1495 157.435 23.7455C157.435 20.4895 159.562 18.917 161.708 18.917C162.929 18.917 163.947 19.5275 164.613 20.952V15.957H166.981ZM162.245 20.9335C161.079 20.9335 159.858 21.877 159.858 23.8565C159.858 25.7805 161.061 26.7055 162.226 26.7055C163.484 26.7055 164.613 25.836 164.613 23.8565C164.613 21.9325 163.484 20.9335 162.245 20.9335Z" fill="black"/>
<path d="M208.588 16.54C210.892 16.5401 213.587 18.4391 213.587 22.5C213.587 26.7422 210.995 28.8027 208.341 28.8027C206.922 28.8027 205.667 28.257 204.7 26.9639V32.54H201.8V16.8633H204.7V18.459C205.503 17.3681 206.757 16.54 208.588 16.54ZM222.516 16.54C224.82 16.5403 227.514 18.4393 227.514 22.5C227.514 26.7421 224.922 28.8026 222.269 28.8027C220.849 28.8027 219.594 28.257 218.627 26.9639V32.54H215.727V16.8633H218.628V18.459C219.43 17.3681 220.685 16.54 222.516 16.54ZM186.74 23.126C187.296 22.7422 188.057 22.9035 188.551 23.6309C189.785 25.4085 191.369 26.6211 193.405 26.6211C195.401 26.621 196.532 25.6711 197.602 24.2979C198.177 23.5506 198.939 23.4083 199.453 23.8125C200.008 24.2368 200.029 25.0047 199.453 25.752C197.911 27.7722 195.936 28.9843 193.405 28.9844C190.649 28.9844 188.282 27.4895 186.575 24.9238C186.103 24.2571 186.226 23.4896 186.74 23.126ZM233.645 16.54C236.031 16.54 237.78 17.6312 238.5 20.3789L235.887 20.7822C235.846 19.3886 234.962 18.9649 233.707 18.9648C232.72 18.9648 231.999 19.3889 231.999 20.0557C231.999 20.5807 232.37 21.1262 233.48 21.3281L235.476 21.6914C237.43 22.0556 238.479 23.308 238.479 25.0254C238.479 27.5503 236.154 28.8027 233.974 28.8027C231.67 28.8027 229.119 27.6305 228.708 24.7822L231.32 24.3779C231.464 25.8528 232.39 26.3789 233.871 26.3789C235.002 26.3789 235.764 25.9746 235.764 25.2676C235.764 24.6413 235.414 24.1762 234.18 23.9541L232.369 23.6309C230.456 23.2872 229.284 21.9536 229.284 20.2568C229.284 17.6307 231.711 16.5401 233.645 16.54ZM180.425 24.7012L183.14 16.8428H186.328L181.597 28.499H179.231L174.5 16.8428H177.688L180.425 24.7012ZM207.683 19.0449C206.099 19.045 204.7 20.1561 204.7 22.6406C204.7 25.0245 206.099 26.2772 207.662 26.2773C209.143 26.2773 210.666 25.1054 210.666 22.6406C210.666 20.2164 209.143 19.0449 207.683 19.0449ZM221.61 19.0449C220.026 19.0449 218.627 20.156 218.627 22.6406C218.627 25.0246 220.026 26.2773 221.59 26.2773C223.071 26.2773 224.593 25.1054 224.593 22.6406C224.593 20.2165 223.071 19.045 221.61 19.0449ZM195.504 18.6006C196.368 18.6007 197.108 19.2474 197.108 20.1768C197.108 21.1057 196.368 21.7519 195.504 21.752C194.64 21.752 193.9 21.1058 193.899 20.1768C193.899 19.2474 194.64 18.6006 195.504 18.6006Z" fill="black"/>
</svg>
